<mxfile host="app.diagrams.net" agent="Mozilla/5.0 (X11; Linux x86_64) AppleWebKit/537.36 (KHTML, like Gecko) Chrome/134.0.0.0 Safari/537.36" version="26.1.0">
  <diagram name="ページ1" id="_i9H_WmNruifYZTERCZt">
    <mxGraphModel dx="275" dy="146" grid="1" gridSize="10" guides="1" tooltips="1" connect="1" arrows="1" fold="1" page="1" pageScale="1" pageWidth="827" pageHeight="1169" math="1" shadow="0">
      <root>
        <mxCell id="0" />
        <mxCell id="1" parent="0" />
        <mxCell id="seox3qZz70vZdtINoKrf-1" value="" style="shape=waypoint;sketch=0;fillStyle=solid;size=6;pointerEvents=1;points=[];fillColor=none;resizable=0;rotatable=0;perimeter=centerPerimeter;snapToPoint=1;" vertex="1" parent="1">
          <mxGeometry x="200" y="240" width="20" height="20" as="geometry" />
        </mxCell>
        <mxCell id="seox3qZz70vZdtINoKrf-2" value="$$O$$" style="text;strokeColor=none;align=center;fillColor=none;html=1;verticalAlign=middle;whiteSpace=wrap;rounded=0;fontSize=16;" vertex="1" parent="1">
          <mxGeometry x="170" y="250" width="40" height="40" as="geometry" />
        </mxCell>
        <mxCell id="seox3qZz70vZdtINoKrf-4" value="" style="endArrow=none;html=1;rounded=0;" edge="1" parent="1">
          <mxGeometry width="50" height="50" relative="1" as="geometry">
            <mxPoint x="40" y="281" as="sourcePoint" />
            <mxPoint x="640" y="171" as="targetPoint" />
          </mxGeometry>
        </mxCell>
        <mxCell id="seox3qZz70vZdtINoKrf-5" value="" style="endArrow=none;html=1;rounded=0;" edge="1" parent="1">
          <mxGeometry width="50" height="50" relative="1" as="geometry">
            <mxPoint x="40" y="184" as="sourcePoint" />
            <mxPoint x="640" y="74" as="targetPoint" />
          </mxGeometry>
        </mxCell>
        <mxCell id="seox3qZz70vZdtINoKrf-6" value="$$l_0$$" style="text;strokeColor=none;align=center;fillColor=none;html=1;verticalAlign=middle;whiteSpace=wrap;rounded=0;fontSize=16;" vertex="1" parent="1">
          <mxGeometry x="640" y="160" width="40" height="40" as="geometry" />
        </mxCell>
        <mxCell id="seox3qZz70vZdtINoKrf-7" value="$$l$$" style="text;strokeColor=none;align=center;fillColor=none;html=1;verticalAlign=middle;whiteSpace=wrap;rounded=0;fontSize=16;" vertex="1" parent="1">
          <mxGeometry x="640" y="40" width="40" height="40" as="geometry" />
        </mxCell>
        <mxCell id="seox3qZz70vZdtINoKrf-8" value="" style="endArrow=classic;html=1;rounded=0;strokeWidth=2;" edge="1" parent="1">
          <mxGeometry width="50" height="50" relative="1" as="geometry">
            <mxPoint x="320" y="230" as="sourcePoint" />
            <mxPoint x="306" y="150" as="targetPoint" />
          </mxGeometry>
        </mxCell>
        <mxCell id="seox3qZz70vZdtINoKrf-9" value="$$\mathbf{a}$$" style="text;strokeColor=none;align=center;fillColor=none;html=1;verticalAlign=middle;whiteSpace=wrap;rounded=0;fontSize=16;" vertex="1" parent="1">
          <mxGeometry x="310" y="160" width="40" height="40" as="geometry" />
        </mxCell>
        <mxCell id="seox3qZz70vZdtINoKrf-11" value="" style="whiteSpace=wrap;html=1;aspect=fixed;rotation=349;fillColor=none;strokeWidth=1;" vertex="1" parent="1">
          <mxGeometry x="319" y="219" width="10" height="10" as="geometry" />
        </mxCell>
      </root>
    </mxGraphModel>
  </diagram>
</mxfile>
